<?xml version="1.0" encoding="iso-8859-1"?>
<!-- Generator: Adobe Illustrator 21.0.0, SVG Export Plug-In . SVG Version: 6.00 Build 0)  -->
<svg xmlns="http://www.w3.org/2000/svg" xmlns:xlink="http://www.w3.org/1999/xlink" version="1.1" id="Capa_1" x="0px" y="0px" viewBox="0 0 512 512" style="enable-background:new 0 0 512 512;" xml:space="preserve" preserveAspectRatio="xMinYMin meet">
<g>
	<circle style="fill:#3872B7;" cx="387.067" cy="370.807" r="19.014"/>
	<path style="fill:#EC6B59;" d="M177.664,376.828c-17.674,25.629,8.759,102.938,34.478,118.852c19.007,11.761,68.71,11.761,87.716,0   c25.719-15.914,52.152-93.222,34.478-118.852C311.007,342.998,200.993,342.998,177.664,376.828z"/>
	<path style="fill:#BC4142;" d="M334.336,376.828c-13.091-18.984-53.48-27.313-90.529-24.991   c28.973,1.816,55.905,10.145,66.143,24.991c17.674,25.63-8.759,102.938-34.478,118.852c-7.235,4.477-18.921,7.244-31.665,8.313   c20.736,1.739,44.28-1.029,56.051-8.313C325.577,479.766,352.01,402.458,334.336,376.828z"/>
	<path style="fill:#52668D;" d="M317.121,363.162c-31.703-15.603-90.539-15.603-122.241,0l17.243,55.929   c5.936,19.254,23.73,32.388,43.878,32.388h0c20.148,0,37.942-13.135,43.878-32.388L317.121,363.162z"/>
	<path style="fill:#243B5D;" d="M311.871,380.188l5.249-17.027c-20.688-10.178-50.132-12.763-73.253-11.321   C266.377,353.259,302.28,360.157,311.871,380.188z"/>
	<path style="fill:#EC6B59;" d="M413.267,233.769h-47.136v52.11h47.136c8.691,0,15.736-7.045,15.736-15.736v-20.638   C429.003,240.814,421.958,233.769,413.267,233.769z"/>
	<path style="fill:#BC4142;" d="M366.131,285.879h42.264c2.479-16.304,3.111-34.475,2.007-52.11h-44.271V285.879z"/>
	<path style="fill:#EC6B59;" d="M98.733,233.769h47.136v52.11H98.733c-8.691,0-15.736-7.045-15.736-15.736v-20.638   C82.997,240.814,90.042,233.769,98.733,233.769z"/>
	<path style="fill:#EBEEF2;" d="M140.42,157.04c-29.63,31.647-32.592,150.894,0,179.024c44.949,38.794,186.211,38.794,231.16,0   c32.592-28.13,29.63-147.377,0-179.024C330.716,113.394,181.284,113.394,140.42,157.04z"/>
	<path style="fill:#C9CDD3;" d="M371.58,157.04c-22.33-23.85-77.078-34.667-128.815-32.451   c42.942,1.839,83.81,12.655,102.344,32.451c29.63,31.647,32.592,150.895,0,179.024c-20.341,17.556-60.407,27.166-102.344,28.833   c50.734,2.016,104.208-7.594,128.815-28.833C404.172,307.934,401.21,188.687,371.58,157.04z"/>
	<path style="fill:#60C3EA;" d="M151.045,250.069v8.748c0,29.787,24.147,53.934,53.934,53.934h102.042   c29.787,0,53.934-24.147,53.934-53.934v-8.748c0-29.787-24.147-53.934-53.934-53.934H204.979   C175.192,196.135,151.045,220.282,151.045,250.069z"/>
	<path style="fill:#4A9ECC;" d="M171.922,273.484v-8.748c0-29.787,24.147-53.934,53.934-53.934h102.042   c6.94,0,13.567,1.325,19.66,3.713c-9.885-11.261-24.376-18.379-40.538-18.379H204.979c-29.787,0-53.934,24.147-53.934,53.935v8.748   c0,22.847,14.213,42.362,34.274,50.222C176.985,299.545,171.922,287.109,171.922,273.484z"/>
	<g>
		<circle style="fill:#E0F7FC;" cx="305.634" cy="254.443" r="20.674"/>
		<circle style="fill:#E0F7FC;" cx="206.366" cy="254.443" r="20.674"/>
	</g>
	<circle style="fill:#EBEEF2;" cx="256" cy="406.962" r="18.76"/>
	<path style="fill:#BCD151;" d="M409.729,7.5H218.148c-10.645,0-19.274,8.629-19.274,19.274v55.705   c0,10.645,8.629,19.274,19.274,19.274h137.83c0.557,0,1.09,0.229,1.473,0.634l35.163,37.15c2.521,2.664,7.002,0.879,7.002-2.788   V103.78c0-1.12,0.908-2.028,2.028-2.028h8.085c10.645,0,19.274-8.629,19.274-19.274V26.774C429.003,16.129,420.374,7.5,409.729,7.5   z"/>
	<path style="fill:#8D9F25;" d="M409.729,7.5h-19.406c10.644,0,19.274,8.629,19.274,19.273v55.705   c0,10.645-8.629,19.274-19.274,19.274h-8.085c-1.12,0-2.028,0.908-2.028,2.028v22.65l12.404,13.105   c2.521,2.664,7.002,0.879,7.002-2.788V103.78c0-1.12,0.908-2.028,2.028-2.028h8.085c10.645,0,19.274-8.629,19.274-19.274V26.773   C429.003,16.129,420.374,7.5,409.729,7.5z"/>
	<circle style="fill:#F4D34C;" cx="101.888" cy="100.644" r="18.891"/>
	<g>
		<path d="M413.267,226.266h-11.959c-2.66-29.825-10.278-59.425-24.256-74.355c-35.215-37.612-138.086-43.926-199.78-24.078    c-3.943,1.269-6.111,5.494-4.843,9.436c1.269,3.943,5.494,6.113,9.436,4.843c28.621-9.207,67.4-12.512,103.731-8.841    c37.523,3.792,66.867,14.323,80.506,28.891c14.231,15.199,23.246,58.927,20.971,101.714c-0.385,7.24-1.072,14.112-2.03,20.523    c-0.045,0.227-0.081,0.458-0.105,0.691c-3.324,21.663-9.782,37.971-18.261,45.289c-11.715,10.111-31.71,17.92-56.39,22.542    c-0.538,0.04-1.068,0.138-1.58,0.29c-15.984,2.882-33.871,4.441-52.707,4.441c-18.84,0-36.729-1.559-52.715-4.442    c-0.45-0.133-0.914-0.225-1.385-0.272c-0.002,0-0.004,0-0.006,0c-0.055-0.005-0.11-0.01-0.165-0.015    c-0.004,0-0.008-0.001-0.012-0.001c-24.682-4.622-44.679-12.431-56.395-22.543c-8.479-7.318-14.937-23.626-18.261-45.289    c-0.024-0.234-0.06-0.464-0.105-0.691c-0.959-6.411-1.645-13.283-2.03-20.523c-2.275-42.787,6.74-86.515,20.971-101.715    c2.794-2.984,6.307-5.846,10.44-8.505c3.483-2.241,4.491-6.882,2.25-10.365c-2.242-3.484-6.882-4.491-10.365-2.25    c-5.172,3.327-9.638,6.984-13.275,10.868c-13.978,14.929-21.596,44.53-24.256,74.355h-1.299V125.947    c10.909-3.24,18.889-13.358,18.889-25.305c0-14.552-11.839-26.391-26.391-26.391S75.5,86.09,75.5,100.642    c0,11.949,7.981,22.068,18.893,25.306v100.725c-10.742,2.039-18.89,11.502-18.89,22.832v20.63    c0,12.814,10.421,23.239,23.23,23.239h14.518c3.385,18.26,9.876,37.663,22.271,48.361c10.483,9.048,25.905,16.392,44.771,21.648    c-3.577,2.803-6.519,5.868-8.806,9.183c-9.77,14.171-7.671,36.94-4.191,53.547c3.207,15.3,8.862,31.249,15.924,44.909    c5.401,10.447,14.118,24.311,24.976,31.028c10.722,6.633,29.263,9.95,47.804,9.95c18.541,0,37.084-3.317,47.807-9.951    c12.711-7.868,25.673-27.952,34.673-53.724c1.366-3.911-0.697-8.187-4.608-9.553c-3.912-1.368-8.188,0.697-9.553,4.608    c-7.668,21.958-18.818,39.98-28.405,45.914c-16.412,10.155-63.413,10.155-79.827,0c-12.811-7.925-28.113-37.648-34.109-66.257    c-3.952-18.851-3.256-34.536,1.858-41.953c1.602-2.322,3.852-4.543,6.684-6.619l14.435,46.831    c6.954,22.536,27.468,37.678,51.046,37.678c11.511,0,22.482-3.613,31.723-10.445c9.253-6.829,15.934-16.246,19.323-27.235    l14.435-46.829c2.833,2.076,5.083,4.298,6.684,6.619c4.419,6.406,5.575,19.066,3.171,34.733c-0.628,4.094,2.181,7.922,6.275,8.551    c0.386,0.059,0.769,0.088,1.147,0.088c3.64,0,6.835-2.655,7.404-6.363c2.138-13.932,2.894-33.141-5.65-45.526    c-2.286-3.314-5.228-6.378-8.804-9.181c18.865-5.256,34.287-12.6,44.771-21.648c12.395-10.698,18.886-30.101,22.271-48.361h5.918    v49.213l-4.929,4.929c-3.767-2.059-8.086-3.23-12.673-3.23c-14.619,0-26.513,11.894-26.513,26.513s11.894,26.513,26.513,26.513    c14.619,0,26.513-11.894,26.513-26.513c0-4.589-1.172-8.91-3.233-12.678l5.945-5.945c2.146-2.145,3.376-5.11,3.376-8.133v-51.566    c9.707-2.787,16.83-11.748,16.83-22.342v-20.63C436.497,236.691,426.076,226.266,413.267,226.266z M90.5,100.642    c0-6.281,5.11-11.391,11.391-11.391c6.281,0,11.391,5.11,11.391,11.391s-5.11,11.391-11.391,11.391    C95.61,112.033,90.5,106.924,90.5,100.642z M98.733,278.375c-4.538,0-8.23-3.696-8.23-8.24v-20.63c0-4.543,3.692-8.24,8.23-8.24    h11.031c-0.282,8.066-0.211,15.967,0.185,23.408c0.215,4.048,0.562,8.701,1.112,13.701H98.733z M292.712,416.873    c-2.437,7.902-7.242,14.675-13.901,19.589c-6.646,4.914-14.534,7.511-22.811,7.511c-16.957,0-31.711-10.891-36.712-27.099    l-14.863-48.219c15.832,2.614,33.226,3.999,51.575,3.999s35.743-1.385,51.575-3.999L292.712,416.873z M387.065,382.314    c-6.349,0-11.513-5.165-11.513-11.513s5.165-11.513,11.513-11.513c6.349,0,11.513,5.165,11.513,11.513    S393.414,382.314,387.065,382.314z M421.497,270.136c0,4.543-3.692,8.24-8.23,8.24H400.94c0.55-5,0.897-9.653,1.112-13.701    c0.396-7.441,0.467-15.342,0.185-23.408h11.031c4.538,0,8.23,3.696,8.23,8.24V270.136z"/>
		<path d="M143.547,258.813c0,33.874,27.559,61.434,61.433,61.434h102.04c33.874,0,61.433-27.559,61.433-61.434v-8.748    c0-33.874-27.559-61.434-61.433-61.434H204.98c-33.874,0-61.433,27.559-61.433,61.434V258.813z M158.547,250.065    c0-25.604,20.83-46.434,46.433-46.434h102.04c25.604,0,46.433,20.83,46.433,46.434v8.748c0,25.604-20.83,46.434-46.433,46.434    H204.98c-25.604,0-46.433-20.83-46.433-46.434V250.065z"/>
		<path d="M305.633,282.613c15.535,0,28.173-12.638,28.173-28.173s-12.638-28.174-28.173-28.174    c-15.535,0-28.174,12.639-28.174,28.174S290.099,282.613,305.633,282.613z M305.633,241.265c7.264,0,13.174,5.91,13.174,13.174    c0,7.264-5.91,13.174-13.174,13.174c-7.264,0-13.174-5.91-13.174-13.174C292.459,247.175,298.369,241.265,305.633,241.265z"/>
		<path d="M206.367,282.613c15.535,0,28.174-12.638,28.174-28.173s-12.639-28.174-28.174-28.174s-28.173,12.639-28.173,28.174    S190.832,282.613,206.367,282.613z M206.367,241.265c7.264,0,13.174,5.91,13.174,13.174c0,7.264-5.91,13.174-13.174,13.174    c-7.264,0-13.174-5.91-13.174-13.174C193.193,247.175,199.102,241.265,206.367,241.265z"/>
		<path d="M256,380.695c-14.48,0-26.26,11.78-26.26,26.26c0,14.48,11.78,26.26,26.26,26.26c14.48,0,26.26-11.78,26.26-26.26    C282.26,392.476,270.48,380.695,256,380.695z M256,418.215c-6.209,0-11.26-5.051-11.26-11.26s5.051-11.26,11.26-11.26    c6.209,0,11.26,5.051,11.26,11.26S262.209,418.215,256,418.215z"/>
		<path d="M409.727,0H218.149c-14.763,0-26.773,12.011-26.773,26.773v55.704c0,14.763,12.011,26.773,26.773,26.773h135.473    l33.543,35.439c2.236,2.361,5.264,3.621,8.369,3.621c1.44,0,2.898-0.271,4.299-0.83c4.422-1.761,7.28-5.975,7.28-10.736v-27.495    h2.613c14.762,0,26.773-12.011,26.773-26.773V26.773C436.5,12.011,424.489,0,409.727,0z M421.5,82.477    c0,6.492-5.282,11.774-11.773,11.774h-8.085c-5.254,0-9.528,4.274-9.528,9.528v24.318l-29.215-30.866    c-1.791-1.894-4.314-2.98-6.922-2.98H218.149c-6.492,0-11.773-5.282-11.773-11.774V26.773c0-6.492,5.282-11.774,11.774-11.774    h191.578c6.492,0,11.773,5.282,11.773,11.773V82.477z"/>
		<path d="M254.053,45.475h-4.666c-4.142,0-7.5,3.358-7.5,7.5s3.358,7.5,7.5,7.5h4.666c4.142,0,7.5-3.358,7.5-7.5    S258.195,45.475,254.053,45.475z"/>
		<path d="M295.532,45.475h-4.666c-4.142,0-7.5,3.358-7.5,7.5s3.358,7.5,7.5,7.5h4.666c4.142,0,7.5-3.358,7.5-7.5    S299.674,45.475,295.532,45.475z"/>
		<path d="M337.01,45.475h-4.666c-4.142,0-7.5,3.358-7.5,7.5s3.358,7.5,7.5,7.5h4.666c4.142,0,7.5-3.358,7.5-7.5    S341.152,45.475,337.01,45.475z"/>
		<path d="M378.489,45.475h-4.666c-4.142,0-7.5,3.358-7.5,7.5s3.358,7.5,7.5,7.5h4.666c4.142,0,7.5-3.358,7.5-7.5    S382.631,45.475,378.489,45.475z"/>
	</g>
</g>
</svg>
