<svg id="Capa_1" enable-background="new 0 0 512 512" viewBox="0 0 512 512" xmlns="http://www.w3.org/2000/svg"><g><g><path d="m433.789 401.463h-355.578c-11.158 0-20.203-9.045-20.203-20.203v-353.557c0-11.158 9.045-20.203 20.203-20.203h355.577c11.158 0 20.203 9.045 20.203 20.203v353.557c.001 11.158-9.044 20.203-20.202 20.203z" fill="#ecf4ff"/></g><g><path d="m433.789 7.5h-32.325c11.158 0 20.203 9.045 20.203 20.203v353.557c0 11.158-9.045 20.203-20.203 20.203h32.325c11.158 0 20.203-9.045 20.203-20.203v-353.557c0-11.158-9.045-20.203-20.203-20.203z" fill="#ddeafb"/></g><g><g><path d="m377.956 308.542c-11.494-.409-20.94 8.788-20.94 20.19v-20.729c0-10.955-8.518-20.285-19.466-20.674-11.494-.409-20.94 8.788-20.94 20.19v-19.719c0-10.955-8.518-20.285-19.466-20.674-11.494-.409-20.94 8.788-20.94 20.19v-65.176c0-10.955-8.518-20.285-19.466-20.674-11.494-.409-20.94 8.788-20.94 20.19v118.189c0-11.158-9.045-20.203-20.203-20.203-11.158 0-20.203 9.045-20.203 20.203v87.547c0 8.743 2.836 17.25 8.081 24.244l18.183 24.244c2.623 3.497 4.041 7.751 4.041 12.122v16.498h161.626v-20.747c0-1.652.203-3.297.603-4.9l8.292-33.168c.801-3.205 1.206-6.496 1.206-9.8v-106.669c-.001-10.955-8.52-20.285-19.468-20.674z" fill="#ffddce"/></g><g><path d="m397.423 435.885v-86.018c-22.224 71.8-93.945 119.278-173.401 130.096 1.094 2.522 1.674 5.255 1.674 8.038v16.499h161.626v-20.747c0-1.652.203-3.297.603-4.9l8.292-33.168c.801-3.205 1.206-6.496 1.206-9.8z" fill="#ffcbbe"/></g></g><g><g><path d="m108.805 169.126c-10.202 0-18.472-8.27-18.472-18.472v-92.357c0-10.202 8.27-18.472 18.472-18.472h92.358c10.202 0 18.472 8.27 18.472 18.472v92.358c0 10.202-8.27 18.472-18.472 18.472h-92.358z" fill="#b3e59f"/></g><g><path d="m201.163 169.048c10.202 0 18.472-8.27 18.472-18.472v-92.358c0-9.677-7.446-17.603-16.919-18.393.195 2.565.294 5.157.294 7.772 0 55.853-45.278 101.132-101.132 101.132-3.905 0-7.755-.229-11.545-.66v2.507c0 10.202 8.27 18.472 18.472 18.472z" fill="#95d6a4"/></g></g><g><g><path d="m310.837 169.126c-10.202 0-18.472-8.27-18.472-18.472v-92.357c0-10.202 8.27-18.472 18.472-18.472h92.358c10.202 0 18.472 8.27 18.472 18.472v92.358c0 10.202-8.27 18.472-18.472 18.472h-92.358z" fill="#df75a5"/></g><g><path d="m403.195 169.126c10.202 0 18.472-8.27 18.472-18.472v-92.357c0-9.677-7.446-17.603-16.919-18.393.195 2.565.294 5.157.294 7.772 0 55.853-45.278 101.132-101.132 101.132-3.905 0-7.755-.229-11.545-.66v2.507c0 10.202 8.27 18.472 18.472 18.472h92.358z" fill="#dd5790"/></g></g><g><path d="m433.79 0h-355.58c-15.274 0-27.7 12.426-27.7 27.7v290.16c0 4.142 3.358 7.5 7.5 7.5s7.5-3.358 7.5-7.5v-290.16c0-7.003 5.697-12.7 12.7-12.7h355.58c7.003 0 12.7 5.697 12.7 12.7v42.44c0 4.142 3.358 7.5 7.5 7.5s7.5-3.358 7.5-7.5v-42.44c0-15.274-12.426-27.7-27.7-27.7z"/><path d="m453.99 97.64c-4.142 0-7.5 3.358-7.5 7.5v276.12c0 7.003-5.697 12.7-12.7 12.7h-28.87v-8.33c0-4.142-3.358-7.5-7.5-7.5s-7.5 3.358-7.5 7.5v50.26c0 2.697-.329 5.384-.975 7.979l-8.304 33.173c-.545 2.194-.821 4.451-.821 6.708v20.75c0 4.142 3.358 7.5 7.5 7.5s7.5-3.358 7.5-7.5v-20.75c0-1.04.127-2.08.375-3.079l8.302-33.168c.944-3.788 1.422-7.695 1.422-11.613v-26.93h28.87c15.274 0 27.7-12.426 27.7-27.7v-276.12c.001-4.142-3.357-7.5-7.499-7.5z"/><path d="m389.92 329.22v21.41c0 4.142 3.358 7.5 7.5 7.5s7.5-3.358 7.5-7.5v-21.41c0-15.011-11.974-27.65-26.693-28.175-4.948-.181-9.725.93-13.962 3.18-1.805-13.294-12.978-23.91-26.448-24.39-4.989-.18-9.818.953-14.088 3.25-2.125-13.026-12.926-22.983-26.329-23.46-4.844-.162-9.529.894-13.701 3.054v-40.539c0-15.011-11.974-27.65-26.699-28.176-7.586-.253-14.788 2.493-20.245 7.762-5.453 5.267-8.457 12.342-8.457 19.923v93.58c-3.809-1.973-8.132-3.089-12.71-3.089-7.409 0-14.366 2.885-19.583 8.117-5.234 5.234-8.117 12.189-8.117 19.583v54.12h-109.678c-7.003 0-12.7-5.697-12.7-12.7v-28.4c0-4.142-3.358-7.5-7.5-7.5s-7.5 3.358-7.5 7.5v28.4c0 15.274 12.426 27.7 27.7 27.7h109.68v18.43c0 10.293 3.402 20.499 9.579 28.739l18.185 24.256c1.642 2.185 2.546 4.89 2.546 7.615v16.5c0 4.142 3.358 7.5 7.5 7.5s7.5-3.358 7.5-7.5v-16.5c0-5.954-1.973-11.859-5.549-16.619l-18.18-24.25c-4.244-5.661-6.581-12.671-6.581-19.741v-87.55c0-3.388 1.322-6.576 3.73-8.984 2.39-2.396 5.575-3.716 8.969-3.716 6.999 0 12.694 5.683 12.709 12.672 0 .01-.002.02-.002.031v48.412l-6.895 6.895c-2.929 2.929-2.929 7.677 0 10.606 1.464 1.465 3.384 2.197 5.303 2.197s3.839-.732 5.303-2.197l9.092-9.091c1.407-1.406 2.197-3.314 2.197-5.303v-51.464c0-.02.003-.038.003-.058v-118.19c0-3.476 1.377-6.719 3.877-9.134 2.502-2.417 5.799-3.686 9.296-3.561 6.742.241 12.227 6.155 12.227 13.185l.003 127.805c0 4.142 3.358 7.5 7.5 7.5s7.5-3.358 7.5-7.5v-62.63c0-.009-.001-.018-.001-.027.008-3.467 1.385-6.702 3.88-9.111 2.503-2.418 5.795-3.694 9.292-3.562 6.747.24 12.236 6.155 12.236 13.185v62.146c0 4.142 3.358 7.5 7.5 7.5s7.5-3.358 7.5-7.5v-42.426c0-3.478 1.38-6.725 3.885-9.143 2.503-2.415 5.809-3.673 9.288-3.552 6.748.241 12.237 6.151 12.237 13.175l-.004 41.945c0 4.142 3.358 7.5 7.5 7.5s7.5-3.358 7.5-7.5v-21.138c0-.026.004-.051.004-.077 0-3.48 1.379-6.728 3.884-9.145 2.501-2.414 5.797-3.67 9.289-3.55 6.743.241 12.228 6.155 12.228 13.185z"/><path d="m227.134 150.654v-92.357c0-14.321-11.651-25.972-25.972-25.972h-92.358c-14.32 0-25.971 11.651-25.971 25.972v92.357c0 14.321 11.651 25.972 25.971 25.972h92.358c14.321 0 25.972-11.651 25.972-25.972zm-15 0c0 6.05-4.922 10.972-10.972 10.972h-92.358c-6.049 0-10.971-4.922-10.971-10.972v-92.357c0-6.05 4.922-10.972 10.971-10.972h92.358c6.05 0 10.972 4.922 10.972 10.972z"/><path d="m429.167 150.654v-92.357c0-14.321-11.651-25.972-25.971-25.972h-92.358c-14.321 0-25.972 11.651-25.972 25.972v92.357c0 14.321 11.651 25.972 25.972 25.972h92.358c14.32 0 25.971-11.651 25.971-25.972zm-15 0c0 6.05-4.922 10.972-10.971 10.972h-92.358c-6.05 0-10.972-4.922-10.972-10.972v-92.357c0-6.05 4.922-10.972 10.972-10.972h92.358c6.049 0 10.971 4.922 10.971 10.972z"/><path d="m386.563 74.929c-2.929-2.929-7.678-2.929-10.606 0l-18.941 18.941-18.941-18.941c-2.929-2.929-7.678-2.929-10.606 0-2.929 2.929-2.929 7.678 0 10.606l18.941 18.941-18.941 18.941c-2.929 2.929-2.929 7.678 0 10.606 1.464 1.464 3.384 2.197 5.303 2.197s3.839-.732 5.303-2.197l18.941-18.941 18.941 18.941c1.464 1.464 3.384 2.197 5.303 2.197s3.839-.732 5.303-2.197c2.929-2.929 2.929-7.678 0-10.606l-18.941-18.941 18.941-18.941c2.93-2.929 2.93-7.678 0-10.606z"/><path d="m410.695 201.451c0-4.142-3.358-7.5-7.5-7.5h-92.358c-4.142 0-7.5 3.358-7.5 7.5s3.358 7.5 7.5 7.5h92.358c4.142 0 7.5-3.358 7.5-7.5z"/><path d="m310.837 226.276c-4.142 0-7.5 3.358-7.5 7.5s3.358 7.5 7.5 7.5h61.331c4.142 0 7.5-3.358 7.5-7.5s-3.358-7.5-7.5-7.5z"/><path d="m208.663 201.451c0-4.142-3.358-7.5-7.5-7.5h-92.358c-4.142 0-7.5 3.358-7.5 7.5s3.358 7.5 7.5 7.5h92.358c4.142 0 7.5-3.358 7.5-7.5z"/><path d="m108.805 226.276c-4.142 0-7.5 3.358-7.5 7.5s3.358 7.5 7.5 7.5h61.332c4.142 0 7.5-3.358 7.5-7.5s-3.358-7.5-7.5-7.5z"/><g><g><path d="m144.462 133.976c-1.919 0-3.839-.732-5.303-2.197l-22.957-22.957c-2.929-2.929-2.929-7.678 0-10.606 2.929-2.929 7.678-2.929 10.606 0l17.653 17.653 38.697-38.697c2.929-2.929 7.678-2.929 10.606 0 2.929 2.929 2.929 7.678 0 10.606l-44 44c-1.463 1.465-3.383 2.198-5.302 2.198z"/></g></g></g></g></svg>