<svg viewBox="-1 0 512 512" xmlns="http://www.w3.org/2000/svg"><path d="m252.839844 7.5c-29.171875.136719-145.1875 73.808594-144.648438 190.421875.066406 14.289063 54.792969 152.636719 146.238282 152.210937 91.445312-.421874 144.886718-139.273437 144.820312-153.558593-.542969-116.617188-117.238281-189.210938-146.410156-189.074219zm0 0" fill="#323e44"/><path d="m108.222656 198.453125c93.699219-35.328125 196.976563-35.808594 291-1.351563.011719-.183593.027344-.375.027344-.53125-.542969-116.613281-117.238281-189.207031-146.410156-189.070312s-145.1875 73.808594-144.648438 190.421875c.003906.15625.015625.347656.03125.53125zm0 0" fill="#465058"/><path d="m252.839844 7.5c-6.125.027344-16.082032 3.308594-27.976563 9.535156 42.375 21.875 108.980469 80.296875 117.03125 163.617188 19.375 4.097656 38.539063 9.566406 57.328125 16.449218.011719-.183593.027344-.375.027344-.53125-.542969-116.613281-117.238281-189.207031-146.410156-189.070312zm0 0" fill="#323e44"/><path d="m485.652344 502.363281c10.5625-.050781 18.539062-9.59375 16.710937-20l-11.171875-63.632812c-4.984375-28.378907-25.890625-51.335938-53.679687-58.941407l-117.613281-22.542968c-11.339844-2.222656-19.550782-15.328125-19.605469-26.886719l-.171875-37.234375-92.09375.425781.171875 37.234375c.054687 11.558594-8.039063 24.738282-19.355469 27.070313l-117.398438 23.632812c-27.71875 7.863281-48.410156 31.011719-53.128906 59.433594l-10.582031 63.734375c-1.730469 10.421875 6.332031 19.890625 16.898437 19.84375zm0 0" fill="#465058"/><path d="m502.363281 482.363281-11.171875-63.636719c-4.984375-28.375-25.890625-51.332031-53.679687-58.9375l-117.613281-22.542968c-11.339844-2.226563-19.550782-15.332032-19.605469-26.886719l-.171875-37.234375-52.742188.242188.105469 60.9375c.054687 11.558593 8.265625 24.664062 19.605469 26.886718l117.609375 22.542969c27.789062 7.609375 48.699219 30.5625 53.679687 58.941406l10.511719 59.855469 36.757813-.171875c10.566406-.046875 18.542968-9.589844 16.714843-19.996094zm0 0" fill="#323e44"/><path d="m155.046875 183.894531 2.21875 36.449219c.960937 15.867188 6.207031 31.183594 15.21875 44.285156 10.371094 15.082032 48 48.1875 56.542969 51.78125 16.167968 6.804688 34.390625 6.71875 50.492187-.234375 8.507813-3.675781 45.828125-37.125 56.0625-52.304687 8.886719-13.183594 13.988281-28.539063 14.808594-44.417969.53125-10.398437 1.195313-23.273437 1.875-36.472656-64.863281-15.449219-132.5-15.132813-197.21875.914062zm0 0" fill="#ffe1cc"/><path d="m295.757812 173.570312c-.546874 15.09375-1.070312 37.398438-1.507812 45.882813-.816406 15.878906-5.917969 31.234375-14.804688 44.417969-9.410156 13.957031-41.695312 43.339844-53.457031 50.84375 1.226563.785156 2.257813 1.367187 3.039063 1.695312 16.164062 6.804688 34.390625 6.722656 50.492187-.234375 8.507813-3.671875 45.828125-37.125 56.0625-52.304687 8.886719-13.179688 13.988281-28.539063 14.804688-44.417969.535156-10.398437 1.199219-23.273437 1.878906-36.472656-18.652344-4.441407-37.535156-7.574219-56.507813-9.410157zm0 0" fill="#f4d3bd"/><path d="m418.367188 502.675781-326.453126 1.511719-1.039062-223.625c-.035156-7.597656 6.097656-13.785156 13.691406-13.820312l298.945313-1.386719c7.597656-.035157 13.78125 6.09375 13.816406 13.691406zm0 0" fill="#dae5ea"/><path d="m417.332031 279.046875c-.035156-7.597656-6.222656-13.726563-13.820312-13.691406l-53.699219.25c6.332031 1.207031 11.132812 6.753906 11.164062 13.441406l1.039063 223.628906-270.101563 1.25v.261719l326.453126-1.511719zm0 0" fill="#c3d5db"/><path d="m422.8125 502.652344-335.339844 1.554687c-14.359375.066407-26.054687-11.519531-26.121094-25.875-.015624-3.863281 3.101563-7.007812 6.960938-7.027343l373.351562-1.730469c3.859376-.019531 7.007813 3.097656 7.023438 6.960937.066406 14.359375-11.519531 26.050782-25.875 26.117188zm0 0" fill="#25687c"/><path d="m261.242188 432.84375c-4.03125 2.03125-8.78125 2.050781-12.832032.0625-18.316406-9.003906-29.957031-27.601562-30.050781-48.011719l-.09375-20.765625c-.054687-11.117187 8.917969-20.175781 20.039063-20.226562l32.21875-.148438c11.121093-.054687 20.175781 8.921875 20.230468 20.039063l.09375 20.765625c.09375 20.410156-11.371094 39.113281-29.605468 48.285156zm0 0" fill="#d84444"/><path d="m263.703125 357.0625-18.453125.085938c-8.367188.039062-15.179688-6.710938-15.21875-15.078126-.0625-13.460937 10.796875-24.425781 24.261719-24.488281 13.460937-.0625 24.421875 10.800781 24.488281 24.261719.039062 8.367188-6.714844 15.179688-15.078125 15.21875zm0 0" fill="#25687c"/><path d="m188.710938 399.097656c1.933593 0 3.863281-.742187 5.328124-2.222656l11.226563-11.328125 5.597656-.027344c.066407 4.695313.65625 9.289063 1.726563 13.710938l-9.695313 4.550781c-.078125.035156-.152343.074219-.230469.113281-4.875 2.496094-7.886718 7.445313-7.859374 12.917969l.09375 20.304688c.019531 4.132812 3.375 7.46875 7.5 7.46875h.035156c4.144531-.019532 7.484375-3.394532 7.464844-7.535157l-.089844-19.941406 8.101562-3.800781c5.90625 11.199218 15.28125 20.472656 27.191406 26.328125 3.03125 1.492187 6.347657 2.234375 9.667969 2.234375 3.382813 0 6.769531-.773438 9.847657-2.324219 11.855468-5.964844 21.140624-15.320313 26.941406-26.570313l8.117187 3.714844.09375 19.945313c.019531 4.128906 3.371094 7.464843 7.496094 7.464843h.039063c4.140624-.023437 7.480468-3.394531 7.464843-7.535156l-.097656-20.304687c-.023437-5.476563-3.082031-10.398438-7.976563-12.847657-.078124-.039062-.15625-.078124-.234374-.113281l-9.714844-4.445312c1.03125-4.441407 1.582031-9.042969 1.601562-13.742188l5.574219-.023437 11.328125 11.226562c1.464844 1.445313 3.371094 2.171875 5.28125 2.171875 1.929688 0 3.859375-.742187 5.328125-2.222656 2.914063-2.941406 2.890625-7.691406-.050781-10.605469l-13.535156-13.414062c-1.40625-1.390625-3.304688-2.171875-5.28125-2.171875h-.035157l-8.675781.039062-.027344-6.351562c-.003906-.9375-.058594-1.867188-.152344-2.785157l8.378907-4.292968c4.871093-2.496094 7.882812-7.449219 7.855469-12.921875l-.09375-20.304688c-.019532-4.128906-3.371094-7.464843-7.5-7.464843h-.035157c-4.140625.019531-7.484375 3.394531-7.464843 7.535156l.09375 19.960937-6.839844 3.503907c-1.742188-2.257813-3.835938-4.246094-6.226563-5.886719-.214843-8.25-3.546875-15.964844-9.429687-21.792969-6.011719-5.957031-13.972656-9.230469-22.429688-9.230469h-.152344c-8.515624.039063-16.503906 3.394531-22.496093 9.441407-5.824219 5.882812-9.085938 13.625-9.226563 21.878906-2.378906 1.664062-4.457031 3.675781-6.179687 5.953125l-6.886719-3.449219-.09375-19.964844c-.019531-4.128906-3.375-7.464844-7.5-7.464844h-.035156c-4.140625.019532-7.484375 3.394532-7.464844 7.535157l.09375 20.304687c.023438 5.472656 3.082031 10.398438 7.976562 12.847656l8.445313 4.226563c-.085937.917969-.128906 1.839844-.125 2.773437l.027344 6.355469-8.703125.042969c-1.988282.007812-3.890625.808594-5.292969 2.21875l-13.410156 13.539062c-2.914063 2.941407-2.894531 7.691407.050781 10.605469 1.457031 1.445313 3.367188 2.171875 5.273438 2.171875zm91.007812-41.242187c.417969-.421875.8125-.855469 1.191406-1.300781 1.480469 2.082031 2.328125 4.605468 2.339844 7.273437l.097656 20.765625c.074219 15.972656-7.882812 30.507812-21.0625 39.027344l-.277344-59.050782 1.730469-.007812c6.046875-.03125 11.722657-2.410156 15.980469-6.707031zm-37.300781-27.777344c3.171875-3.199219 7.402343-4.976563 11.910156-4.996094h.078125c4.476562 0 8.691406 1.730469 11.875 4.886719 3.203125 3.171875 4.976562 7.402344 5 11.910156.007812 2.042969-.777344 3.964844-2.214844 5.417969-1.441406 1.449219-3.355468 2.257813-5.398437 2.265625l-18.453125.085938h-.039063c-2.027343 0-3.9375-.785157-5.378906-2.214844-1.453125-1.4375-2.257813-3.355469-2.265625-5.398438-.023438-4.507812 1.714844-8.753906 4.886719-11.957031zm-14.382813 26.722656c.382813.441407.785156.871094 1.203125 1.289063 4.269531 4.230468 9.925781 6.558594 15.9375 6.558594h.109375l1.722656-.007813.277344 59.050781c-13.261718-8.398437-21.351562-22.859375-21.425781-38.832031l-.097656-20.765625c-.011719-2.667969.8125-5.199219 2.273437-7.292969zm0 0"/><path d="m509.75 481.066406-11.171875-63.636718c-4.769531-27.152344-22.695313-49.9375-47.957031-60.949219-3.792969-1.65625-8.21875.078125-9.875 3.875-1.652344 3.796875.082031 8.21875 3.878906 9.875 20.636719 8.996093 35.285156 27.609375 39.179688 49.792969l11.175781 63.636718c.484375 2.777344-.273438 5.613282-2.078125 7.773438-1.8125 2.164062-4.464844 3.414062-7.285156 3.425781l-34.933594.210937c3.613281-5.464843 5.539062-11.871093 5.503906-18.570312-.015625-3.871094-1.539062-7.503906-4.289062-10.226562-2.75-2.726563-6.421876-4.253907-10.269532-4.199219l-15.949218.074219-.847657-183.136719c-.054687-11.6875-9.582031-21.15625-21.253906-21.15625h-.101563l-20.972656.097656c15.222656-27.695313 24.28125-53.472656 24.246094-61.417969-.308594-65.824218-35.34375-114.421875-64.679688-143.597656-33.355468-33.171875-71.476562-52.9375-89.15625-52.9375h-.109374c-17.628907.0820312-55.652344 20.214844-88.769532 53.761719-29.0625 29.449219-63.648437 78.371093-63.34375 144.195312.039063 7.941407 9.335938 33.636719 24.816406 61.1875l-20.976562.097657c-11.71875.054687-21.207031 9.632812-21.15625 21.355468l.851562 183.132813-15.949218.074219c-3.871094.019531-7.503906 1.542968-10.226563 4.292968-2.726562 2.75-4.214843 6.394532-4.199219 10.269532.03125 6.648437 1.988282 12.996093 5.601563 18.402343-13 .085938-34.855469.230469-34.855469.230469h-.046875c-2.804687 0-5.449219-1.222656-7.269531-3.355469-1.828125-2.148437-2.613281-4.976562-2.152344-7.757812l10.582032-63.734375c3.679687-22.140625 18.082031-40.855469 38.527343-50.074219 3.777344-1.699219 5.460938-6.140625 3.757813-9.917969s-6.140625-5.457031-9.921875-3.757812c-25.027344 11.28125-42.660157 34.195312-47.160157 61.292968l-10.582031 63.734376c-1.1875 7.152343.828125 14.417968 5.53125 19.9375 4.675781 5.492187 11.480469 8.632812 18.6875 8.632812h.113281l62.835938-.292969h.003906l335.34375-1.554687h.003906l62.835938-.292969c7.246094-.03125 14.070312-3.242187 18.722656-8.804687 4.648438-5.5625 6.59375-12.847657 5.339844-19.988282zm-144.539062-223.035156-17.554688.082031c6.03125-11.839843 9.53125-24.878906 10.222656-38.273437l1.410156-27.394532c10.527344 2.753907 20.972657 5.933594 31.3125 9.539063-3.007812 10.515625-11.800781 32.800781-25.390624 56.046875zm-190.5-193.730469c31.246093-31.65625 66.050781-49.242187 78.164062-49.300781h.058594c12.171875 0 47.074218 17.261719 78.558594 48.570312 25.785156 25.644532 56.292968 67.269532 59.90625 122.828126-89.382813-30.144532-186.351563-29.695313-275.445313 1.277343 3.109375-55.605469 33.21875-97.5 58.757813-123.375zm169.742187 124.5625-1.554687 30.207031c-.71875 13.945313-5.050782 27.433594-12.558594 39.125l-152.667969.707032c-7.613281-11.617188-12.074219-25.066406-12.921875-39.011719l-1.832031-30.1875c59.671875-13.832031 121.734375-14.117187 181.535156-.839844zm-227.566406 14.394531c10.304687-3.703124 20.722656-6.980468 31.226562-9.832031l1.664063 27.375c.8125 13.386719 4.433594 26.394531 10.578125 38.183594l-17.558594.082031c-13.808594-23.136718-22.8125-45.351562-25.910156-55.808594zm-12.285157 70.984376 298.945313-1.386719h.027344c3.4375 0 6.238281 2.785156 6.253906 6.226562l.851563 183.136719-311.453126 1.441406-.851562-183.132812c-.015625-3.449219 2.777344-6.269532 6.226562-6.285156zm331.230469 215.433593c-3.476562 3.507813-8.113281 5.453125-13.054687 5.476563l-335.34375 1.558594h-.085938c-4.910156 0-9.527344-1.902344-13.019531-5.359376-3.386719-3.355468-5.320313-7.796874-5.46875-12.546874l372.324219-1.730469c-.105469 4.753906-1.992188 9.210937-5.351563 12.601562zm0 0"/></svg>