<svg viewBox="0 0 64 64" xmlns="http://www.w3.org/2000/svg" xml:space="preserve" preserveAspectRatio="xMinYMin meet"><g id="woman-laptop-working-girl-user"><path d="m29 36.31v4.69l13.52 3.6a2.013 2.013 0 0 1 1.48 1.94v14.46h-38v-14.46a2.013 2.013 0 0 1 1.48-1.94l13.52-3.6v-4.69" fill="#ffc477"/><path d="m38 43.4v17.6h-26v-17.6l4-1.07v8.67h18v-8.67z" fill="#ffa733"/><path d="m40 19.36a4 4 0 0 1 -3 6.64h-.04c.03-.33.04-.66.04-1v-7a4.025 4.025 0 0 1 2.83 1.17 1.537 1.537 0 0 1 .17.19z" fill="#ffc477"/><path d="m40 18v1.36a1.537 1.537 0 0 0 -.17-.19 4.025 4.025 0 0 0 -2.83-1.17l-7-5-17 5a4.025 4.025 0 0 0 -2.83 1.17 1.537 1.537 0 0 0 -.17.19v-1.36a15 15 0 0 1 30 0z" fill="#ffcd00"/><path d="m37 18v7c0 .34-.01.67-.04 1a11.976 11.976 0 0 1 -7.96 10.31 11.939 11.939 0 0 1 -8 0 11.976 11.976 0 0 1 -7.96-10.31c-.03-.33-.04-.66-.04-1v-7l17-5z" fill="#ffc477"/><path d="m40 18v1.36a1.537 1.537 0 0 0 -.17-.19 4.025 4.025 0 0 0 -2.83-1.17l-1.02-.73a15.013 15.013 0 0 0 -12.98-14.13 14.6 14.6 0 0 1 2-.14 15.023 15.023 0 0 1 15 15z" fill="#ddb200"/><path d="m37 18v7c0 .34-.01.67-.04 1a11.976 11.976 0 0 1 -7.96 10.31 11.8 11.8 0 0 1 -4 .69 12 12 0 0 1 -2-.17 11.082 11.082 0 0 0 2-.52 11.976 11.976 0 0 0 7.96-10.31c.03-.33.04-.66.04-1v-7l-5.83-4.17 2.83-.83z" fill="#ffa733"/><path d="m31 57v4h-10a2.006 2.006 0 0 1 -2-2v-2z" fill="#acabb1"/><path d="m13.04 26h-.04a4 4 0 0 1 -3-6.64 1.537 1.537 0 0 1 .17-.19 4.025 4.025 0 0 1 2.83-1.17v7c0 .34.01.67.04 1z" fill="#ffc477"/><path d="m13 26v8a8 8 0 0 1 -8 8h-2v-8a8 8 0 0 1 8-8z" fill="#ffcd00"/><path d="m37 26v8a8 8 0 0 0 8 8h2v-8a8 8 0 0 0 -8-8z" fill="#ffcd00"/><path d="m47 34v8h-2a8.239 8.239 0 0 1 -2-.25v-7.75a8.006 8.006 0 0 0 -6-7.75v-.25h2a8 8 0 0 1 8 8z" fill="#ddb200"/><path d="m61 41v20h-30v-20a2.006 2.006 0 0 1 2-2h26a2.006 2.006 0 0 1 2 2z" fill="#c6c5ca"/><path d="m61 41v20h-4v-20a2.006 2.006 0 0 0 -2-2h4a2.006 2.006 0 0 1 2 2z" fill="#898890"/><path d="m19 21a3 3 0 0 0 -3 3h2a1 1 0 0 1 2 0h2a3 3 0 0 0 -3-3z"/><path d="m31 23a1 1 0 0 1 1 1h2a3 3 0 0 0 -6 0h2a1 1 0 0 1 1-1z"/><path d="m28 30h-2a1 1 0 0 1 -2 0h-2a3 3 0 0 0 6 0z"/><path d="m59 38h-11v-4a9.009 9.009 0 0 0 -7.18-8.81 4.892 4.892 0 0 0 .18-6.15v-1.04a16 16 0 0 0 -32 0v1.03a4.964 4.964 0 0 0 -1 2.97 4.887 4.887 0 0 0 1.18 3.18 9.029 9.029 0 0 0 -7.18 8.82v8a1 1 0 0 0 1 1h2a9.014 9.014 0 0 0 9-9v-2.1a13.043 13.043 0 0 0 6 5.1v3.23l-12.79 3.41a3.018 3.018 0 0 0 -2.21 2.9v14.46a1 1 0 0 0 1 1h55a1 1 0 0 0 1-1v-20a3.009 3.009 0 0 0 -3-3zm-13-4v4h-6.71a7.006 7.006 0 0 1 -1.29-4v-7h1a7.008 7.008 0 0 1 7 7zm-6.75-13.98a3.031 3.031 0 0 1 .75 1.98 2.994 2.994 0 0 1 -2 2.81v-5.62a3.148 3.148 0 0 1 1.18.75.5.5 0 0 0 .07.08zm-27.25 13.98a7.008 7.008 0 0 1 -7 7h-1v-7a7.008 7.008 0 0 1 7-7h1zm0-9.18a3 3 0 0 1 -1.13-4.94 3.1 3.1 0 0 1 1.13-.7zm.79-7.8a5.01 5.01 0 0 0 -1.76.39 14.007 14.007 0 0 1 13.97-13.41 14 14 0 0 1 13.97 13.41 4.794 4.794 0 0 0 -1.6-.37l-6.79-4.85a1.015 1.015 0 0 0 -.86-.15zm1.21 7.98v-6.25l15.82-4.65 6.18 4.41v6.49a11 11 0 0 1 -22 0zm-3 35h-4v-13.46a1.008 1.008 0 0 1 .74-.97l3.26-.87zm19 0h-9a1 1 0 0 1 -1-1v-1h10zm0-4h-11a1 1 0 0 0 -1 1v2a3 3 0 0 0 .18 1h-5.18v-15.83l2-.54v7.37a1 1 0 0 0 1 1h14zm0-6h-13v-6.9l4.26-1.13a1 1 0 0 0 .74-.97v-3.36a12.68 12.68 0 0 0 6 0v3.36a1.017 1.017 0 0 0 .74.97l1.26.33zm.1-9.74-.1-.03v-3.23a13.043 13.043 0 0 0 6-5.1v2.1a9.087 9.087 0 0 0 .95 4h-3.95a3 3 0 0 0 -2.9 2.26zm29.9 19.74h-28v-19a1 1 0 0 1 1-1h26a1 1 0 0 1 1 1z"/><circle cx="46" cy="50" r="2"/><path d="m35 56h2v2h-2z"/><path d="m39 56h2v2h-2z"/><path d="m43 56h2v2h-2z"/><path d="m47 56h2v2h-2z"/><path d="m51 56h2v2h-2z"/><path d="m55 56h2v2h-2z"/></g></svg>