<?xml version="1.0" standalone="no"?>
<!DOCTYPE svg PUBLIC "-//W3C//DTD SVG 20010904//EN"
 "http://www.w3.org/TR/2001/REC-SVG-20010904/DTD/svg10.dtd">
<svg version="1.0" xmlns="http://www.w3.org/2000/svg"
 width="700.000000pt" height="700.000000pt" viewBox="0 0 700.000000 700.000000"
 preserveAspectRatio="xMidYMid meet">
<metadata>
Created by potrace 1.14, written by Peter Selinger 2001-2017
</metadata>
<g transform="translate(0.000000,700.000000) scale(0.100000,-0.100000)"
fill="#000000" stroke="none">
<path d="M2861 6978 c-117 -40 -216 -157 -238 -283 -5 -28 -8 -239 -7 -470 1
-404 2 -422 23 -476 40 -105 121 -184 231 -225 41 -15 136 -17 1005 -18 l960
-1 91 -95 c50 -52 105 -111 123 -130 286 -305 295 -312 370 -305 54 6 97 31
123 75 20 32 22 51 24 235 1 110 3 205 3 211 1 6 15 11 32 12 172 5 304 106
352 269 13 44 16 121 15 466 0 228 -4 435 -9 460 -20 110 -100 211 -206 264
l-58 28 -1385 2 -1385 2 -64 -21z"/>
<path d="M1312 5974 c-163 -42 -267 -167 -277 -332 -8 -145 75 -284 205 -343
l50 -23 0 -688 0 -688 -27 -6 c-77 -18 -168 -98 -207 -183 -19 -42 -21 -63
-21 -251 0 -113 3 -217 7 -231 19 -78 95 -173 160 -202 69 -31 105 -37 224
-37 92 0 124 -3 125 -12 1 -18 4 -31 29 -128 59 -228 141 -393 247 -497 37
-36 167 -133 178 -133 1 0 29 -15 62 -33 64 -37 200 -93 308 -127 39 -13 73
-24 77 -26 3 -2 -15 -26 -42 -53 -82 -83 -125 -169 -150 -301 -10 -52 -14
-237 -6 -290 2 -14 7 -52 10 -85 4 -33 10 -68 12 -77 3 -10 7 -30 10 -45 23
-130 95 -350 165 -507 115 -257 258 -452 394 -538 90 -56 245 -102 430 -126
77 -10 403 -9 475 2 205 31 371 87 441 148 14 13 42 37 61 54 112 98 254 336
348 582 41 106 38 151 -13 192 -20 16 -20 17 5 110 24 91 26 95 57 101 80 16
95 65 96 304 0 145 -4 192 -18 240 -27 92 -67 161 -129 228 -32 33 -56 61 -55
62 72 20 252 85 303 108 317 146 447 293 548 620 19 61 40 138 47 170 l12 57
39 0 38 0 1 -52 c0 -29 0 -181 0 -337 l0 -284 -33 -34 -33 -33 -55 21 c-79 30
-194 24 -270 -13 -169 -83 -248 -266 -190 -438 41 -120 124 -202 240 -236 254
-75 505 149 458 407 -5 29 -16 66 -24 82 -15 28 -14 29 45 93 34 36 62 75 63
87 1 12 3 180 4 372 1 193 3 355 3 362 1 7 24 24 53 38 83 42 135 104 161 193
21 68 22 377 2 453 -15 57 -55 123 -93 154 -76 62 -146 83 -272 83 -47 0 -90
0 -95 1 -6 1 -12 18 -13 39 -3 33 -8 73 -27 207 -13 91 -70 331 -92 385 -3 8
-7 20 -8 26 -8 34 -81 187 -119 248 -38 61 -135 165 -201 216 -61 46 -195 120
-300 165 -113 48 -422 135 -535 150 -14 2 -72 10 -130 19 -251 36 -518 47
-795 32 -71 -4 -143 -8 -160 -10 -16 -2 -59 -7 -95 -11 -61 -6 -148 -18 -212
-30 -16 -3 -39 -7 -53 -9 -14 -3 -33 -7 -43 -10 -9 -3 -28 -7 -42 -10 -103
-18 -244 -60 -276 -81 -20 -13 -47 -70 -43 -91 3 -21 -2 -34 -14 -34 -7 0 -45
-16 -85 -35 l-73 -35 -38 26 c-50 33 -86 26 -165 -30 -109 -78 -194 -176 -255
-296 -29 -55 -81 -181 -85 -203 -1 -7 -10 -34 -19 -62 -16 -46 -69 -285 -81
-365 -3 -19 -8 -69 -12 -110 -7 -75 -22 -127 -25 -85 -1 11 -2 322 -3 692 l-1
671 51 22 c94 39 183 154 200 258 11 69 11 84 -3 143 -43 195 -242 321 -431
273z"/>
</g>
</svg>
